<mxfile host="65bd71144e">
    <diagram id="6WO3p2y-Gsrm65lVtJRW" name="Page-1">
        <mxGraphModel dx="1002" dy="736" grid="1" gridSize="10" guides="1" tooltips="1" connect="1" arrows="1" fold="1" page="1" pageScale="1" pageWidth="850" pageHeight="1100" math="0" shadow="0">
            <root>
                <mxCell id="0"/>
                <mxCell id="1" parent="0"/>
                <mxCell id="5" style="edgeStyle=none;html=1;exitX=0.5;exitY=1;exitDx=0;exitDy=0;entryX=0.5;entryY=0;entryDx=0;entryDy=0;" edge="1" parent="1" source="2" target="4">
                    <mxGeometry relative="1" as="geometry"/>
                </mxCell>
                <mxCell id="2" value="Downloaded data" style="rounded=0;whiteSpace=wrap;html=1;" vertex="1" parent="1">
                    <mxGeometry x="60" y="90" width="120" height="60" as="geometry"/>
                </mxCell>
                <mxCell id="7" style="edgeStyle=none;html=1;exitX=0.5;exitY=1;exitDx=0;exitDy=0;entryX=0.469;entryY=-0.02;entryDx=0;entryDy=0;entryPerimeter=0;fontSize=8;" edge="1" parent="1" source="3" target="6">
                    <mxGeometry relative="1" as="geometry"/>
                </mxCell>
                <mxCell id="3" value="Preloaded JASMIN data" style="rounded=0;whiteSpace=wrap;html=1;" vertex="1" parent="1">
                    <mxGeometry x="350" y="90" width="120" height="60" as="geometry"/>
                </mxCell>
                <mxCell id="28" style="edgeStyle=none;html=1;exitX=1;exitY=1;exitDx=0;exitDy=0;entryX=0.5;entryY=0;entryDx=0;entryDy=0;fontSize=8;" edge="1" parent="1" source="4" target="8">
                    <mxGeometry relative="1" as="geometry"/>
                </mxCell>
                <mxCell id="4" value="&lt;font style=&quot;font-size: 8px;&quot;&gt;/work/xfc/vol5/user_cache/benhutch/{var_name}/{model}/*.nc&lt;/font&gt;" style="rounded=1;whiteSpace=wrap;html=1;align=center;" vertex="1" parent="1">
                    <mxGeometry x="20" y="190" width="220" height="60" as="geometry"/>
                </mxCell>
                <mxCell id="29" style="edgeStyle=none;html=1;exitX=0.5;exitY=1;exitDx=0;exitDy=0;fontSize=8;entryX=0.5;entryY=0;entryDx=0;entryDy=0;" edge="1" parent="1" source="6" target="8">
                    <mxGeometry relative="1" as="geometry">
                        <mxPoint x="340" y="360" as="targetPoint"/>
                    </mxGeometry>
                </mxCell>
                <mxCell id="6" value="&lt;div&gt;/badc/cmip6/data/CMIP6/DCPP/IPSL/IPSL-CM6A-LR/dcppA-hindcast/s2016-r1i1p1f1/Amon/rsds&lt;/div&gt;&lt;div&gt;&lt;br&gt;&lt;/div&gt;" style="rounded=1;whiteSpace=wrap;html=1;fontSize=8;" vertex="1" parent="1">
                    <mxGeometry x="300" y="200" width="175" height="50" as="geometry"/>
                </mxCell>
                <mxCell id="27" style="edgeStyle=none;html=1;exitX=1;exitY=0.5;exitDx=0;exitDy=0;entryX=0;entryY=0.5;entryDx=0;entryDy=0;fontSize=8;" edge="1" parent="1" source="8" target="18">
                    <mxGeometry relative="1" as="geometry"/>
                </mxCell>
                <mxCell id="30" style="edgeStyle=none;html=1;exitX=0.5;exitY=1;exitDx=0;exitDy=0;fontSize=8;" edge="1" parent="1" source="8" target="31">
                    <mxGeometry relative="1" as="geometry">
                        <mxPoint x="330" y="650" as="targetPoint"/>
                    </mxGeometry>
                </mxCell>
                <mxCell id="8" value="Model processing bash script(s)" style="rounded=0;whiteSpace=wrap;html=1;fontSize=8;" vertex="1" parent="1">
                    <mxGeometry x="270" y="370" width="120" height="60" as="geometry"/>
                </mxCell>
                <mxCell id="22" style="edgeStyle=none;html=1;exitX=1;exitY=0.5;exitDx=0;exitDy=0;entryX=0;entryY=0;entryDx=0;entryDy=0;fontSize=8;" edge="1" parent="1" source="10" target="8">
                    <mxGeometry relative="1" as="geometry"/>
                </mxCell>
                <mxCell id="10" value="variable (rsds, tas, psl)" style="rounded=1;whiteSpace=wrap;html=1;fontSize=8;" vertex="1" parent="1">
                    <mxGeometry x="130" y="270" width="90" height="50" as="geometry"/>
                </mxCell>
                <mxCell id="23" style="edgeStyle=none;html=1;exitX=1;exitY=0.5;exitDx=0;exitDy=0;entryX=0;entryY=0.25;entryDx=0;entryDy=0;fontSize=8;" edge="1" parent="1" source="11" target="8">
                    <mxGeometry relative="1" as="geometry"/>
                </mxCell>
                <mxCell id="11" value="region (NA, EU, Global, from gridspec file)" style="rounded=1;whiteSpace=wrap;html=1;fontSize=8;" vertex="1" parent="1">
                    <mxGeometry x="120" y="340" width="90" height="50" as="geometry"/>
                </mxCell>
                <mxCell id="24" style="edgeStyle=none;html=1;exitX=1;exitY=0.5;exitDx=0;exitDy=0;entryX=0;entryY=0.5;entryDx=0;entryDy=0;fontSize=8;" edge="1" parent="1" source="12" target="8">
                    <mxGeometry relative="1" as="geometry"/>
                </mxCell>
                <mxCell id="12" value="Season (months, DJFM, JJA, SOND)" style="rounded=1;whiteSpace=wrap;html=1;fontSize=8;" vertex="1" parent="1">
                    <mxGeometry x="110" y="405" width="90" height="50" as="geometry"/>
                </mxCell>
                <mxCell id="25" style="edgeStyle=none;html=1;exitX=1;exitY=0.5;exitDx=0;exitDy=0;entryX=0;entryY=0.75;entryDx=0;entryDy=0;fontSize=8;" edge="1" parent="1" source="14" target="8">
                    <mxGeometry relative="1" as="geometry"/>
                </mxCell>
                <mxCell id="14" value="Single model or all avalable models" style="rounded=1;whiteSpace=wrap;html=1;fontSize=8;" vertex="1" parent="1">
                    <mxGeometry x="110" y="470" width="90" height="50" as="geometry"/>
                </mxCell>
                <mxCell id="18" value="Year {year-range} {season} mean forecast anomalies for {var} and {model(s)} over {region}" style="rounded=1;whiteSpace=wrap;html=1;fontSize=8;" vertex="1" parent="1">
                    <mxGeometry x="460" y="355" width="110" height="50" as="geometry"/>
                </mxCell>
                <mxCell id="26" style="edgeStyle=none;html=1;exitX=1;exitY=0.5;exitDx=0;exitDy=0;entryX=0;entryY=1;entryDx=0;entryDy=0;fontSize=8;" edge="1" parent="1" source="20" target="8">
                    <mxGeometry relative="1" as="geometry"/>
                </mxCell>
                <mxCell id="20" value="Year range (e.g. year 2-5/year2-9)" style="whiteSpace=wrap;html=1;fontSize=8;rounded=1;" vertex="1" parent="1">
                    <mxGeometry x="105" y="540" width="115" height="35" as="geometry"/>
                </mxCell>
                <mxCell id="45" value="" style="edgeStyle=none;html=1;fontSize=8;" edge="1" parent="1" source="31" target="44">
                    <mxGeometry relative="1" as="geometry"/>
                </mxCell>
                <mxCell id="47" value="" style="edgeStyle=none;html=1;fontSize=8;" edge="1" parent="1" source="31" target="46">
                    <mxGeometry relative="1" as="geometry"/>
                </mxCell>
                <mxCell id="31" value="Obs processing bash script(s)" style="rounded=0;whiteSpace=wrap;html=1;fontSize=8;" vertex="1" parent="1">
                    <mxGeometry x="290" y="680" width="120" height="60" as="geometry"/>
                </mxCell>
                <mxCell id="39" style="edgeStyle=none;html=1;exitX=1;exitY=0.5;exitDx=0;exitDy=0;entryX=0.5;entryY=0;entryDx=0;entryDy=0;fontSize=8;" edge="1" parent="1" source="32" target="38">
                    <mxGeometry relative="1" as="geometry"/>
                </mxCell>
                <mxCell id="32" value="variable (rsds, tas, psl)" style="rounded=1;whiteSpace=wrap;html=1;fontSize=8;" vertex="1" parent="1">
                    <mxGeometry x="40" y="600" width="90" height="50" as="geometry"/>
                </mxCell>
                <mxCell id="40" style="edgeStyle=none;html=1;exitX=1;exitY=0.5;exitDx=0;exitDy=0;entryX=0;entryY=0.5;entryDx=0;entryDy=0;fontSize=8;" edge="1" parent="1" source="33" target="38">
                    <mxGeometry relative="1" as="geometry"/>
                </mxCell>
                <mxCell id="33" value="Region" style="rounded=1;whiteSpace=wrap;html=1;fontSize=8;" vertex="1" parent="1">
                    <mxGeometry x="40" y="670" width="90" height="50" as="geometry"/>
                </mxCell>
                <mxCell id="41" style="edgeStyle=none;html=1;exitX=1;exitY=0.5;exitDx=0;exitDy=0;entryX=0;entryY=1;entryDx=0;entryDy=0;fontSize=8;" edge="1" parent="1" source="35" target="38">
                    <mxGeometry relative="1" as="geometry"/>
                </mxCell>
                <mxCell id="35" value="Season&amp;nbsp;" style="whiteSpace=wrap;html=1;fontSize=8;rounded=1;" vertex="1" parent="1">
                    <mxGeometry x="42.5" y="730" width="95" height="50" as="geometry"/>
                </mxCell>
                <mxCell id="42" style="edgeStyle=none;html=1;exitX=1;exitY=0.5;exitDx=0;exitDy=0;entryX=0.5;entryY=1;entryDx=0;entryDy=0;fontSize=8;" edge="1" parent="1" source="37" target="38">
                    <mxGeometry relative="1" as="geometry"/>
                </mxCell>
                <mxCell id="37" value="&lt;br&gt;Year range" style="whiteSpace=wrap;html=1;fontSize=8;rounded=1;" vertex="1" parent="1">
                    <mxGeometry x="42.5" y="790" width="95" height="50" as="geometry"/>
                </mxCell>
                <mxCell id="43" style="edgeStyle=none;html=1;exitX=1;exitY=0.5;exitDx=0;exitDy=0;fontSize=8;" edge="1" parent="1" source="38" target="31">
                    <mxGeometry relative="1" as="geometry"/>
                </mxCell>
                <mxCell id="38" value="ERA5" style="rounded=1;whiteSpace=wrap;html=1;fontSize=8;" vertex="1" parent="1">
                    <mxGeometry x="170" y="700" width="60" height="20" as="geometry"/>
                </mxCell>
                <mxCell id="44" value="Year {year-range} {season} mean forecast anomalies for {var} and ERA5 obs} over {region}" style="whiteSpace=wrap;html=1;fontSize=8;rounded=0;" vertex="1" parent="1">
                    <mxGeometry x="490" y="680" width="120" height="60" as="geometry"/>
                </mxCell>
                <mxCell id="49" value="" style="edgeStyle=none;html=1;fontSize=8;" edge="1" parent="1" source="46" target="48">
                    <mxGeometry relative="1" as="geometry"/>
                </mxCell>
                <mxCell id="46" value="Python file + jupyter notebook" style="rounded=0;whiteSpace=wrap;html=1;fontSize=8;" vertex="1" parent="1">
                    <mxGeometry x="290" y="860" width="120" height="60" as="geometry"/>
                </mxCell>
                <mxCell id="48" value="Calcaulte ACC, MSSS, RPC&amp;nbsp; and significance" style="rounded=0;whiteSpace=wrap;html=1;fontSize=8;" vertex="1" parent="1">
                    <mxGeometry x="490" y="860" width="120" height="60" as="geometry"/>
                </mxCell>
            </root>
        </mxGraphModel>
    </diagram>
</mxfile>